# xmcd CD database file
#
# Track frame offsets:
#	150
#	18453
#	35945
#	56905
#	76074
#	96405
#	117690
#	133599
#	149291
#	170778
#	190899
#	209992
#	227151
#
# Disc length: 3297 seconds
#
# Revision: 0
# Processed by: cddbd v1.4PL0 Copyright (c) Steve Scherf et al.
# Submitted via: CDex 1.50Beta7
#
DISCID=cf0cdf0d
DTITLE=Bola 8 - Corre la bola
DYEAR=2002
DGENRE=Salsa
TTITLE0=La Novela
TTITLE1=Plena Loca
TTITLE2=Como te Mueve
TTITLE3=Mi que se Yo
TTITLE4=Ya es Ajena
TTITLE5=Llego la Hora
TTITLE6=Tubeamba
TTITLE7=Funkyplena
TTITLE8=Julialee
TTITLE9=Lo que yo no Tengo
TTITLE10=Hip Hop Plena
TTITLE11=Nego el Ocho
TTITLE12=Eres Mi Amada
EXTD=YEAR: 2002
EXTT0=
EXTT1=
EXTT2=
EXTT3=
EXTT4=
EXTT5=
EXTT6=
EXTT7=
EXTT8=
EXTT9=
EXTT10=
EXTT11=
EXTT12=
PLAYORDER=
